# xmcd
# 
# Track frame offsets:
#     150
#     17637
#     34867
#     50372
#     68372
#     84930
#     104477
#     128125
#     147172
#     167257
#     185307
#     206182
# 
# Disc length: 2959
# 
# Revision: 2
# Processed by: cddbd v1.5.2PL0 Copyright (c) Steve Scherf et al.
# Submitted via: fre:ac v1.1beta1pre2
# 
DISCID=960b8d0c
DTITLE=MUSE - PIL SOUND GEAR
DYEAR=1996
DGENRE=Game
TTITLE0=Tumbling Life (Super Great Version)
TTITLE1=Walking To A Go-Go
TTITLE2=Queen Morphine
TTITLE3=Sweet Suger Hearts
TTITLE4=Hopeful Morning (Real Mix)
TTITLE5=葬奴夢の淫花 (Real Mix)
TTITLE6=Walk (Real Mix)
TTITLE7=Seek Me -I WANNA FALL IN YOU-
TTITLE8=Poison Kiss
TTITLE9=I Seek You
TTITLE10=Cock Sucker
TTITLE11=PILのテーマ -PIL Has No Thema-
EXTD=
EXTT0=
EXTT1=
EXTT2=
EXTT3=
EXTT4=
EXTT5=
EXTT6=
EXTT7=
EXTT8=
EXTT9=
EXTT10=
EXTT11=
PLAYORDER=
